<svg xmlns="http://www.w3.org/2000/svg" width="48" height="48" viewBox="0 0 48 48" fill="none">
<path d="M23.1796 40.2994H5.40455C4.92355 40.2994 4.51938 40.1349 4.19205 39.8059C3.86472 39.4769 3.70105 39.0708 3.70105 38.5874C3.70105 38.1041 3.86472 37.7008 4.19205 37.3774C4.51938 37.0544 4.92355 36.8929 5.40455 36.8929H23.1796C23.6592 36.8929 24.0651 37.0574 24.3971 37.3864C24.7287 37.7154 24.8946 38.1216 24.8946 38.6049C24.8946 39.0883 24.7287 39.4915 24.3971 39.8145C24.0651 40.1378 23.6592 40.2994 23.1796 40.2994ZM9.09555 33.8929C8.17255 33.8929 7.37205 33.554 6.69405 32.876C6.01605 32.1983 5.67705 31.3978 5.67705 30.4745V11.108C5.67705 10.1846 6.01605 9.38412 6.69405 8.70645C7.37205 8.02845 8.17255 7.68945 9.09555 7.68945H40.6076C41.0886 7.68945 41.4927 7.85628 41.8201 8.18995C42.1474 8.52395 42.311 8.93212 42.311 9.41445C42.311 9.89712 42.1474 10.3001 41.8201 10.6235C41.4927 10.9465 41.0886 11.108 40.6076 11.108H9.09555V30.4745H23.1796C23.6592 30.4745 24.0651 30.6413 24.3971 30.9749C24.7287 31.3086 24.8946 31.7168 24.8946 32.1995C24.8946 32.6821 24.7287 33.085 24.3971 33.408C24.0651 33.7313 23.6592 33.8929 23.1796 33.8929H9.09555ZM41.0715 37.0719V17.3355H31.1215V37.0719H41.0715ZM30.4555 40.2994C29.7679 40.2994 29.1691 40.0444 28.6591 39.5344C28.1494 39.0248 27.8946 38.4261 27.8946 37.7385V16.657C27.8946 15.9673 28.1494 15.3701 28.6591 14.8655C29.1691 14.3605 29.7679 14.108 30.4555 14.108H41.75C42.4377 14.108 43.0364 14.3605 43.546 14.8655C44.056 15.3701 44.311 15.9673 44.311 16.657V37.7385C44.311 38.4261 44.056 39.0248 43.546 39.5344C43.0364 40.0444 42.4377 40.2994 41.75 40.2994H30.4555ZM36.1215 22.5145C36.5492 22.5145 36.9222 22.3565 37.2405 22.0405C37.5585 21.7248 37.7175 21.355 37.7175 20.931C37.7175 20.5033 37.5585 20.1305 37.2405 19.8125C36.9222 19.4945 36.5412 19.3355 36.0975 19.3355C35.6899 19.3355 35.328 19.4945 35.012 19.8125C34.696 20.1305 34.538 20.5113 34.538 20.955C34.538 21.363 34.696 21.7248 35.012 22.0405C35.328 22.3565 35.6979 22.5145 36.1215 22.5145Z" fill="white"/>
</svg>