<svg xmlns="http://www.w3.org/2000/svg" width="48" height="48" viewBox="0 0 48 48" fill="none">
<path d="M7.10755 7.68945H40.8925C41.8159 7.68945 42.6164 8.02845 43.294 8.70645C43.972 9.38412 44.311 10.1846 44.311 11.108V22.297C44.311 22.778 44.1442 23.1821 43.8106 23.5095C43.4766 23.8368 43.0684 24.0005 42.586 24.0005C42.1034 24.0005 41.7004 23.8368 41.377 23.5095C41.054 23.1821 40.8925 22.778 40.8925 22.297V11.108H7.10755V17.63C7.10755 18.1106 6.94305 18.5146 6.61405 18.842C6.28505 19.1693 5.87888 19.333 5.39555 19.333C4.91222 19.333 4.50905 19.1693 4.18605 18.842C3.86272 18.5146 3.70105 18.1106 3.70105 17.63V11.108C3.70105 10.1846 4.03888 9.38412 4.71455 8.70645C5.38988 8.02845 6.18755 7.68945 7.10755 7.68945ZM7.10755 40.2995C6.18755 40.2995 5.38988 39.9616 4.71455 39.286C4.03888 38.6106 3.70105 37.813 3.70105 36.893V30.371C3.70105 29.8913 3.86555 29.4855 4.19455 29.1535C4.52355 28.8218 4.92972 28.656 5.41305 28.656C5.89638 28.656 6.29972 28.8218 6.62305 29.1535C6.94605 29.4855 7.10755 29.8913 7.10755 30.371V36.893H20.2466C20.7276 36.893 21.1317 37.0575 21.4591 37.3865C21.7864 37.7155 21.9501 38.1216 21.9501 38.605C21.9501 39.0883 21.7864 39.4915 21.4591 39.8145C21.1317 40.1378 20.7276 40.2995 20.2466 40.2995H7.10755ZM26.0001 33.6595C26.0001 32.1571 26.5334 30.8643 27.6001 29.781C28.6667 28.6976 29.9667 28.156 31.5 28.156C32.3667 28.156 33.1917 28.358 33.975 28.762C34.7584 29.166 35.4334 29.7473 36 30.506C36.5334 29.7473 37.1917 29.166 37.975 28.762C38.7584 28.358 39.6 28.156 40.5 28.156C42 28.156 43.2917 28.6976 44.375 29.781C45.4584 30.8643 46 32.156 46 33.656C46 34.864 45.5917 36.0076 44.775 37.087C43.9584 38.1663 42.25 39.806 39.65 42.006L37.0815 44.1985C36.8989 44.3555 36.7174 44.461 36.537 44.515C36.357 44.569 36.1729 44.596 35.9845 44.596C35.7962 44.596 35.6061 44.566 35.4141 44.506C35.2221 44.4456 35.0402 44.3431 34.8685 44.1985L31.95 41.706C29.55 39.6473 27.9584 38.092 27.1751 37.04C26.3917 35.9883 26.0001 34.8615 26.0001 33.6595ZM36 40.979L37.552 39.6145C39.6884 37.7958 41.1006 36.5066 41.7886 35.747C42.4766 34.9876 42.8205 34.2896 42.8205 33.653C42.8205 33.035 42.5889 32.4941 42.1255 32.0305C41.6619 31.5671 41.121 31.3355 40.503 31.3355C40.1164 31.3355 39.768 31.4141 39.458 31.5715C39.1484 31.7288 38.8229 31.9881 38.4815 32.3495L36 34.657L33.4805 32.3495C33.1305 31.9881 32.7967 31.7288 32.4791 31.5715C32.1617 31.4141 31.8362 31.3355 31.5025 31.3355C30.8472 31.3355 30.2962 31.5671 29.8495 32.0305C29.4029 32.4941 29.1796 33.035 29.1796 33.653C29.1796 34.2896 29.6304 35.1135 30.532 36.1245C31.4337 37.1355 32.7055 38.295 34.3475 39.603L36 40.979ZM13.9961 33.656C13.6714 33.656 13.3774 33.5813 13.1141 33.432C12.8504 33.2826 12.6272 33.0666 12.4445 32.784L8.94255 25.656H5.35655C4.89255 25.656 4.50072 25.4951 4.18105 25.1735C3.86105 24.8515 3.70105 24.4571 3.70105 23.9905C3.70105 23.5238 3.86105 23.131 4.18105 22.812C4.50072 22.4926 4.89255 22.333 5.35655 22.333H9.99555C10.3039 22.333 10.5885 22.4201 10.8495 22.5945C11.1109 22.7685 11.3089 22.9966 11.4436 23.279L13.9881 28.292L20.5066 15.279C20.6479 14.9883 20.8556 14.7746 21.1296 14.638C21.4036 14.5013 21.6917 14.433 21.9941 14.433C22.2967 14.433 22.5869 14.5013 22.8646 14.638C23.1426 14.7746 23.3522 14.9883 23.4936 15.279L27.0076 22.333H32C32.4674 22.333 32.862 22.4946 33.184 22.818C33.5064 23.1413 33.6675 23.5376 33.6675 24.007C33.6675 24.476 33.5064 24.868 33.184 25.183C32.862 25.4983 32.4674 25.656 32 25.656H26.0001C25.6727 25.656 25.3752 25.5813 25.1076 25.432C24.8399 25.2826 24.6396 25.0666 24.5066 24.784L21.9501 19.759L15.4436 32.772C15.3116 33.0626 15.1137 33.2826 14.8501 33.432C14.5861 33.5813 14.3014 33.656 13.9961 33.656Z" fill="white"/>
</svg>