<svg xmlns="http://www.w3.org/2000/svg" width="48" height="48" viewBox="0 0 48 48" fill="none">
<path d="M23.9998 4.18945C28.1786 4.18945 31.855 5.64887 35.0486 8.58691C38.2135 11.4983 39.8112 15.4056 39.8113 20.3643C39.8113 22.4108 39.3598 24.4502 38.449 26.4854C37.5268 28.5461 36.3697 30.5192 34.9783 32.4033C33.581 34.2953 32.0629 36.0612 30.4236 37.7012C28.772 39.3537 27.23 40.8171 25.7986 42.0918L25.7878 42.1025C25.5522 42.3254 25.2798 42.4869 24.9656 42.5889C24.6268 42.6987 24.2998 42.751 23.9841 42.751C23.6688 42.7509 23.3489 42.6985 23.0222 42.5898C22.7191 42.489 22.4568 42.3288 22.2302 42.1074L22.2214 42.0996L22.2117 42.0908C20.7727 40.8165 19.2281 39.3533 17.5769 37.7012C15.9375 36.0611 14.4186 34.2955 13.0212 32.4033C11.63 30.5194 10.4754 28.5468 9.55737 26.4863C8.65032 24.4509 8.20093 22.4113 8.20093 20.3643C8.20097 15.4054 9.79672 11.4983 12.9578 8.58691C16.1472 5.64909 19.821 4.18949 23.9998 4.18945ZM23.9998 6.6084C20.2571 6.6084 17.0764 7.89501 14.49 10.4668C11.8952 13.047 10.6072 16.3608 10.6072 20.3643C10.6072 23.0659 11.7389 26.0472 13.9187 29.2939C16.0991 32.5414 19.3505 36.17 23.6589 40.1777L23.9958 40.4902L24.3357 40.1816C28.7452 36.1813 32.0267 32.5527 34.1599 29.2959V29.2949C36.2889 26.0442 37.3923 23.0625 37.3923 20.3643C37.3923 16.3608 36.1044 13.047 33.5095 10.4668C30.9226 7.89521 27.7422 6.60847 23.9998 6.6084ZM23.9958 16.9053C24.8598 16.9054 25.5812 17.2032 26.1892 17.8086C26.7964 18.4132 27.0955 19.1326 27.0955 19.9961C27.0954 20.8601 26.7977 21.5799 26.1931 22.1836C25.5888 22.7869 24.8688 23.0839 24.0046 23.084C23.2477 23.084 22.6015 22.8575 22.0476 22.3984L21.8162 22.1875C21.2135 21.5871 20.9167 20.8692 20.9167 20.0049C20.9168 19.2479 21.1435 18.6003 21.6033 18.043L21.8142 17.8096C22.4148 17.2033 23.1325 16.9053 23.9958 16.9053Z" fill="white" stroke="white"/>
</svg>