<svg xmlns="http://www.w3.org/2000/svg" width="48" height="48" viewBox="0 0 48 48" fill="none">
<path d="M7.47951 42.2032C6.99618 42.2032 6.59484 42.0414 6.27551 41.7177C5.95618 41.3944 5.79651 40.9932 5.79651 40.5142V38.1162C5.79651 37.6442 5.95918 37.2444 6.28451 36.9167C6.60951 36.5887 7.01168 36.4247 7.49101 36.4247C7.97034 36.4247 8.36951 36.5884 8.68851 36.9157C9.00784 37.2431 9.16751 37.6447 9.16751 38.1207V40.5187C9.16751 40.9947 9.00468 41.3944 8.67901 41.7177C8.35334 42.0414 7.95351 42.2032 7.47951 42.2032ZM15.7295 42.2032C15.2505 42.2032 14.8523 42.0412 14.535 41.7172C14.2173 41.3932 14.0585 40.9914 14.0585 40.5117V30.4627C14.0585 29.9864 14.2207 29.5874 14.545 29.2657C14.869 28.9441 15.2712 28.7832 15.7515 28.7832C16.2315 28.7832 16.6312 28.9441 16.9505 29.2657C17.2698 29.5874 17.4295 29.9864 17.4295 30.4627V40.5117C17.4295 40.9914 17.2667 41.3932 16.941 41.7172C16.6153 42.0412 16.2115 42.2032 15.7295 42.2032ZM24.002 42.2032C23.5273 42.2032 23.1285 42.0414 22.8055 41.7177C22.4822 41.3944 22.3205 40.9924 22.3205 40.5117V33.4627C22.3205 32.9911 22.4855 32.5912 22.8155 32.2632C23.1452 31.9352 23.5473 31.7712 24.022 31.7712C24.4963 31.7712 24.8932 31.9352 25.2125 32.2632C25.5318 32.5912 25.6915 32.9911 25.6915 33.4627V40.5237C25.6915 40.9954 25.5285 41.3932 25.2025 41.7172C24.8768 42.0412 24.4767 42.2032 24.002 42.2032ZM32.265 42.2032C31.7817 42.2032 31.3805 42.0414 31.0615 41.7177C30.7422 41.3944 30.5825 40.9924 30.5825 40.5117V28.2477C30.5825 27.7747 30.745 27.3766 31.07 27.0532C31.3953 26.7299 31.7975 26.5682 32.2765 26.5682C32.7558 26.5682 33.1552 26.7299 33.4745 27.0532C33.7938 27.3766 33.9535 27.7747 33.9535 28.2477V40.5237C33.9535 40.9954 33.7907 41.3932 33.465 41.7172C33.1393 42.0412 32.7393 42.2032 32.265 42.2032ZM40.514 42.2032C40.0393 42.2032 39.6425 42.0414 39.3235 41.7177C39.0042 41.3944 38.8445 40.9924 38.8445 40.5117V22.2477C38.8445 21.7747 39.007 21.3766 39.332 21.0532C39.657 20.7299 40.0568 20.5682 40.5315 20.5682C41.0062 20.5682 41.4035 20.7299 41.7235 21.0532C42.0435 21.3766 42.2035 21.7747 42.2035 22.2477V40.5237C42.2035 40.9954 42.0405 41.3932 41.7145 41.7172C41.3888 42.0412 40.9887 42.2032 40.514 42.2032ZM27.981 23.1097C27.546 23.1097 27.1203 23.0216 26.704 22.8452C26.2877 22.6692 25.9073 22.4174 25.563 22.0897L20 16.5267L8.75551 27.7212C8.41351 28.0612 8.00418 28.2232 7.52751 28.2072C7.05118 28.1912 6.64801 28.0129 6.31801 27.6722C6.00368 27.3319 5.83818 26.9339 5.82151 26.4782C5.80484 26.0222 5.96651 25.6244 6.30651 25.2847L17.613 14.0782C17.955 13.7392 18.3327 13.4909 18.746 13.3332C19.1597 13.1752 19.5777 13.0962 20 13.0962C20.4223 13.0962 20.8463 13.1752 21.272 13.3332C21.6973 13.4909 22.069 13.7392 22.387 14.0782L28 19.6912L39.2945 8.39625C39.6345 8.05658 40.0348 7.88641 40.4955 7.88574C40.9565 7.88508 41.352 8.05508 41.682 8.39574C41.9963 8.73608 42.1618 9.13408 42.1785 9.58974C42.1952 10.0457 42.0335 10.4436 41.6935 10.7832L30.387 22.0897C30.0793 22.4304 29.7102 22.6856 29.2795 22.8552C28.8488 23.0249 28.416 23.1097 27.981 23.1097Z" fill="white"/>
</svg>